# AST/ASF file generated using VICON BodyLanguage
# -----------------------------------------------
:version 1.10
:name VICON
:units
  mass 1.0
  length 0.45
  angle deg
:documentation
   .ast/.asf automatically generated from VICON data using
   VICON BodyBuilder and BodyLanguage model FoxedUp or BRILLIANT.MOD
:root
   order TX TY TZ RX RY RZ
   axis XYZ
   position 0 0 0  
   orientation 0 0 0 
:bonedata
  begin
     id 1 
     name lhipjoint
     direction 0.521452 -0.77106 0.36545 
     length 2.0933 
     axis 0 0 0  XYZ
  end
  begin
     id 2 
     name lfemur
     direction 0.34202 -0.939693 0  
     length 6.83441  
     axis 0 0 20  XYZ
    dof rx ry rz
    limits (-160.0 20.0)
           (-70.0 70.0)
           (-60.0 70.0)
  end
  begin
     id 3 
     name ltibia
     direction 0.34202 -0.939693 0   
     length 7.28749   
     axis 0 0 20   XYZ
    dof rx
    limits (-10.0 170.0)
  end
  begin
     id 4 
     name lfoot
     direction 0.100608 -0.276418 0.955757   
     length 1.52195   
     axis -90 7.62852e-016 20   XYZ
    dof rx rz
    limits (-45.0 90.0)
           (-70.0 20.0)
  end
  begin
     id 5 
     name ltoes
     direction 1.53558e-011 -4.21907e-011 1   
     length 0.770459   
     axis -90 7.62852e-016 20   XYZ
    dof rx
    limits (-90.0 20.0)
  end
  begin
     id 6 
     name rhipjoint
     direction -0.488071 -0.788702 0.373812   
     length 2.04648  
     axis 0 0 0  XYZ 
  end
  begin
     id 7 
     name rfemur
     direction -0.34202 -0.939693 0   
     length 6.92583   
     axis 0 0 -20   XYZ
    dof rx ry rz
    limits (-160.0 20.0)
           (-70.0 70.0)
           (-70.0 60.0)
  end
  begin
     id 8 
     name rtibia
     direction -0.34202 -0.939693 0   
     length 7.41043   
     axis 0 0 -20   XYZ
    dof rx
    limits (-10.0 170.0)
 end
 begin
     id 9 
     name rfoot
     direction -0.0784433 -0.215521 0.973343   
     length 1.67708  
     axis -90 -7.62852e-016 -20   XYZ
    dof rx rz
    limits (-45.0 90.0)
           (-20.0 70.0)
  end
  begin
     id 10 
     name rtoes
     direction -1.53551e-011 -4.21842e-011 1   
     length 0.849787   
     axis -90 -7.62852e-016 -20   XYZ
    dof rx
    limits (-90.0 20.0)
  end
  begin
     id 11 
     name lowerback
     direction -0.0122332 0.997575 -0.0685192   
     length 1.98724   
     axis 0 0 0   XYZ
    dof rx ry rz
    limits (-20.0 45.0)
           (-30.0 30.0)
           (-30.0 30.0)
  end
  begin
     id 12 
     name upperback
     direction 0.0182347 0.999724 -0.0148421   
     length 1.99029   
     axis 0 0 0   XYZ
    dof rx ry rz
    limits (-20.0 45.0)
           (-30.0 30.0)
           (-30.0 30.0)
  end
  begin
     id 13 
     name thorax
     direction 0.0242908 0.99956 0.0170184   
     length 1.99573   
     axis 0 0 0   XYZ
    dof rx ry rz
    limits (-20.0 45.0)
           (-30.0 30.0)
           (-30.0 30.0)
  end
  begin
     id 14 
     name lowerneck
     direction 0.0654488 0.985533 0.156338   
     length 1.4285   
     axis 0 0 0   XYZ
    dof rx ry rz
    limits (-20.0 45.0)
           (-30.0 30.0)
           (-30.0 30.0)
  end
  begin
     id 15 
     name upperneck
     direction -0.02953 0.998556 -0.0448842   
     length 1.44709   
     axis 0 0 0   XYZ
    dof rx ry rz
    limits (-20.0 45.0)
           (-30.0 30.0)
           (-30.0 30.0)
  end
  begin
     id 16
     name head
     direction -0.0155588 0.999386 -0.0314063  
     length 1.44689  
     axis 0 0 0   XYZ
    dof rx ry rz
    limits (-20.0 45.0)
           (-30.0 30.0)
           (-30.0 30.0)
  end
  begin
     id 17 
     name lclavicle
     direction 0.968229 0.236071 -0.0824755  
     length 3.60593  
     axis 0 0 0   XYZ
    dof ry rz
    limits (-20.0 10.0)
           (0.0 20.0)
  end
  begin
     id 18 
     name lhumerus
     direction 1 -4.48968e-011 7.8138e-029   
     length 5.06035   
     axis 180 -30 -90   XYZ
    dof rx ry rz
    limits (-60.0 90.0)
           (-90.0 90.0)
           (-90.0 90.0)
  end
  begin
     id 19
     name lradius
     direction 1 -4.48967e-011 9.02887e-028   
     length 3.1478   
     axis 180 -30 -90   XYZ
    dof rx
    limits (-10.0 170.0)
  end
  begin
     id 20
     name lwrist
     direction 1 -4.48961e-011 7.20928e-028   
     length 1.5739   
     axis -5.52449e-016 90 90   XYZ
    dof ry
    limits (-180.0 0.0)
 end
  begin
     id 21 
     name lhand
     direction 1 -4.48972e-011 1.44186e-027   
     length 0.606747   
     axis -9.20027e-016 90 90   XYZ
    dof rx rz
    limits (-90.0 90.0)
           (-45.0 45.0)
  end
  begin
     id 22 
     name lfingers
     direction 1 -4.48943e-011 2.88371e-027   
     length 0.489175   
     axis -1.84005e-015 90 90   XYZ
    dof rx
    limits (0.0 90.0)
  end
  begin
     id 23
     name lthumb
     direction 0.707107 -6.34917e-011 0.707107   
     length 0.70236   
     axis -90 45 2.85299e-015   XYZ
    dof rx rz
    limits (-45.0 45.0)
           (-45.0 45.0)
  end
  begin
     id 24 
     name rclavicle
     direction -0.978165 0.207816 0.0022268   
     length 3.35425  
     axis 0 0 0   XYZ 
    dof ry rz
    limits (-10.0 20.0)
           (-20.0 0.0)
  end
  begin
     id 25 
     name rhumerus
     direction -1 -4.48964e-011 -4.02159e-027  
     length 5.12273   
     axis 180 30 90   XYZ
    dof rx ry rz
    limits (-90.0 60.0)
           (-90.0 90.0)
           (-90.0 90.0)
  end
  begin
     id 26 
     name rradius
     direction -1 -4.48966e-011 1.62746e-027   
     length 3.422   
     axis 180 30 90   XYZ
    dof rx
    limits (-10.0 170.0)
  end
  begin
     id 27 
     name rwrist
     direction -1 -4.4896e-011 7.20928e-028   
     length 1.711   
     axis -5.52449e-016 -90 -90   XYZ
    dof ry
    limits (-180.0 0.0)
  end
  begin
     id 28
     name rhand
     direction -1 -4.48979e-011 1.44186e-027   
     length 0.704599   
     axis -9.20027e-016 -90 -90   XYZ
    dof rx rz
    limits (-90.0 90.0)
           (-45.0 45.0)
  end
  begin
     id 29
     name rfingers
     direction -1 -4.48962e-011 2.88371e-027   
     length 0.568066   
     axis -1.84005e-015 -90 -90   XYZ
    dof rx
    limits (0.0 90.0)
  end
  begin
     id 30
     name rthumb
     direction -0.707107 -6.34949e-011 0.707107   
     length 0.815633   
     axis -90 -45 -2.85299e-015   XYZ
    dof rx rz
    limits (-45.0 45.0)
           (-45.0 45.0)
  end
:hierarchy
  begin
    root lhipjoint rhipjoint lowerback
    lhipjoint lfemur
    lfemur ltibia
    ltibia lfoot
    lfoot ltoes
    rhipjoint rfemur
    rfemur rtibia
    rtibia rfoot
    rfoot rtoes
    lowerback upperback
    upperback thorax
    thorax lowerneck lclavicle rclavicle
    lowerneck upperneck
    upperneck head
    lclavicle lhumerus
    lhumerus lradius
    lradius lwrist
    lwrist lhand lthumb
    lhand lfingers
    rclavicle rhumerus
    rhumerus rradius
    rradius rwrist
    rwrist rhand rthumb
    rhand rfingers
  end

#!OML:ASF Z:\Project 1\Capture day 1\Session 1\Male1.ASF
:FULLY-SPECIFIED
:DEGREES
584
root 12.8918 16.4229 -3.80223 -168.398 -16.097 177.211
lowerback -7.40777 -4.38399 -1.281
upperback -0.495536 -5.85516 1.96331
thorax 3.96151 -2.96566 2.10548
lowerneck -9.37143 -2.55135 -4.23069
upperneck -3.74205 -3.34446 4.01184
head 0.558925 -1.73713 1.87123
rclavicle 2.24627e-014 7.15625e-015
rhumerus 82.1535 7.96213 -85.3954
rradius 15.4077
rwrist 60.5888
rhand -45.6168 75.6866
rfingers 7.12502
rthumb -18.3771 46.5346
lclavicle 2.24627e-014 7.15625e-015
lhumerus 79.9715 -8.17296 53.5212
lradius 27.8348
lwrist -22.9637
lhand -39.2579 63.5332
lfingers 7.12502
lthumb -12.2523 266.846
rfemur -13.8392 -8.07882 22.7688
rtibia 21.5471
rfoot -18.6735 -11.925
rtoes 13.7905
lfemur 10.6239 -2.5657 -13.5087
ltibia 15.198
lfoot 17.9906 18.9243
ltoes 54.6112
585
root 12.8907 16.4209 -3.8008 -168.411 -16.1438 177.231
lowerback -7.3995 -4.37738 -1.28248
upperback -0.50694 -5.84785 1.98608
thorax 3.94723 -2.96252 2.13175
lowerneck -9.24743 -2.57157 -4.30266
upperneck -3.84634 -3.36876 4.07141
head 0.508746 -1.74975 1.90423
rclavicle -3.55825e-014 -3.10104e-014
rhumerus 82.2335 7.93352 -84.139
rradius 15.5771
rwrist 59.3772
rhand -45.6459 75.3677
rfingers 7.12502
rthumb -18.405 46.2184
lclavicle -3.55825e-014 -3.10104e-014
lhumerus 79.9725 -8.29192 52.949
lradius 28.0691
lwrist -22.2201
lhand -39.4257 64.1519
lfingers 7.12502
lthumb -12.4141 266.237
rfemur -13.8034 -8.04008 22.767
rtibia 21.5144
rfoot -18.711 -11.779
rtoes 14.4369
lfemur 10.5968 -2.51706 -13.4636
ltibia 15.251
lfoot 17.9404 18.9115
ltoes 54.5443
586
root 12.8903 16.4191 -3.79968 -168.424 -16.169 177.263
lowerback -7.39983 -4.37364 -1.29065
upperback -0.518743 -5.84348 2.00319
thorax 3.93757 -2.96086 2.15488
lowerneck -9.10546 -2.60223 -4.46492
upperneck -3.9145 -3.39665 4.27551
head 0.472917 -1.7606 2.00075
rclavicle -4.09496e-014 7.95139e-016
rhumerus 82.1964 7.90117 -84.3534
rradius 15.5552
rwrist 59.5658
rhand -45.6561 75.5062
rfingers 7.12502
rthumb -18.4149 46.3578
lclavicle -4.09496e-014 7.95139e-016
lhumerus 79.9642 -8.39273 53.0617
lradius 28.0696
lwrist -22.3306
lhand -39.4433 64.0876
lfingers 7.12502
lthumb -12.4311 266.302
rfemur -13.7713 -7.91805 22.7725
rtibia 21.4922
rfoot -18.7748 -11.7184
rtoes 15.3901
lfemur 10.5631 -2.4377 -13.3921
ltibia 15.2976
lfoot 17.8847 18.8982
ltoes 54.5867
587
root 12.8884 16.4194 -3.80007 -168.412 -16.174 177.261
lowerback -7.44026 -4.38266 -1.39562
upperback -0.515772 -5.85119 2.07901
thorax 3.9823 -2.96813 2.28657
lowerneck -8.96896 -2.58146 -3.73753
upperneck -4.14989 -3.45025 3.65774
head 0.346261 -1.80781 1.67097
rclavicle -2.19657e-014 -6.36111e-015
rhumerus 82.1222 7.93242 -85.4802
rradius 15.4259
rwrist 60.7689
rhand -45.4829 75.8052
rfingers 7.12502
rthumb -18.2482 46.6412
lclavicle -2.19657e-014 -6.36111e-015
lhumerus 79.9535 -8.40976 53.6132
lradius 27.9473
lwrist -22.8146
lhand -39.399 63.6816
lfingers 7.12502
lthumb -12.3883 266.705
rfemur -13.7796 -7.93747 22.7646
rtibia 21.4928
rfoot -18.7779 -11.7266
rtoes 15.5799
lfemur 10.5416 -2.49391 -13.4149
ltibia 15.3221
lfoot 17.9227 18.8291
ltoes 54.5089
588
root 12.8853 16.4197 -3.8002 -168.403 -16.1383 177.239
lowerback -7.47455 -4.3971 -1.48818
upperback -0.501838 -5.86572 2.13512
thorax 4.03212 -2.97823 2.39038
lowerneck -9.08729 -2.53847 -3.99927
upperneck -3.97274 -3.35907 3.68492
head 0.424967 -1.75418 1.72705
rclavicle 2.69353e-014 1.19271e-014
rhumerus 82.1053 8.00096 -85.9814
rradius 15.3729
rwrist 61.2847
rhand -45.1478 75.944
rfingers 7.12502
rthumb -17.9259 46.7502
lclavicle 2.69353e-014 1.19271e-014
lhumerus 79.9399 -8.33455 53.8359
lradius 27.8782
lwrist -23.0099
lhand -39.3646 62.9606
lfingers 7.12502
lthumb -12.3552 267.424
rfemur -13.7929 -7.90781 22.7215
rtibia 21.5293
rfoot -18.8141 -11.7585
rtoes 15.4491
lfemur 10.5812 -2.55244 -13.492
ltibia 15.2917
lfoot 17.8621 18.8823
ltoes 54.6325
589
root 12.8836 16.4197 -3.79914 -168.388 -16.113 177.223
lowerback -7.49532 -4.41641 -1.49635
upperback -0.495215 -5.89065 2.13673
thorax 4.05307 -2.99084 2.39162
lowerneck -9.05593 -2.50692 -3.86188
upperneck -4.03727 -3.33407 3.60073
head 0.393324 -1.74598 1.67703
rclavicle -4.76089e-014 -1.27222e-014
rhumerus 82.1407 8.0463 -85.4495
rradius 15.4943
rwrist 60.6825
rhand -44.8558 75.8908
rfingers 7.12502
rthumb -17.6449 46.6714
lclavicle -4.76089e-014 -1.27222e-014
lhumerus 79.9269 -8.2504 53.7388
lradius 27.861
lwrist -22.9654
lhand -39.3612 62.1058
lfingers 7.12502
lthumb -12.3519 268.279
rfemur -13.8266 -7.81639 22.6883
rtibia 21.5773
rfoot -18.8343 -11.8694
rtoes 14.9395
lfemur 10.5948 -2.36996 -13.4748
ltibia 15.2389
lfoot 17.861 18.8121
ltoes 54.7684
590
root 12.8826 16.4197 -3.79847 -168.358 -16.0942 177.156
lowerback -7.51187 -4.40281 -1.60144
upperback -0.490852 -5.86322 2.1375
thorax 4.07595 -2.97914 2.45221
lowerneck -9.21222 -2.54551 -3.87684
upperneck -3.88527 -3.37676 3.64298
head 0.470842 -1.76361 1.68952
rclavicle -8.27938e-014 3.18055e-015
rhumerus 82.153 7.95948 -85.0132
rradius 15.6229
rwrist 60.2833
rhand -44.6512 75.8429
rfingers 7.12502
rthumb -17.448 46.6059
lclavicle -8.27938e-014 3.18055e-015
lhumerus 79.9515 -8.29464 53.7854
lradius 27.8986
lwrist -22.9772
lhand -39.3588 61.5652
lfingers 7.12502
lthumb -12.3496 268.819
rfemur -13.8682 -7.81568 22.6126
rtibia 21.6248
rfoot -18.8085 -11.9358
rtoes 14.1474
lfemur 10.5916 -2.21875 -13.4988
ltibia 15.1948
lfoot 17.8693 18.7624
ltoes 54.8311
591
root 12.8806 16.4192 -3.79737 -168.368 -16.0581 177.099
lowerback -7.48846 -4.40039 -1.70972
upperback -0.481173 -5.85131 2.15239
thorax 4.08471 -2.97539 2.5302
lowerneck -9.37608 -2.57911 -4.07298
upperneck -3.70265 -3.39372 3.83592
head 0.566431 -1.76384 1.78381
rclavicle 1.72943e-014 6.36111e-015
rhumerus 82.1273 7.93534 -85.2622
rradius 15.6377
rwrist 60.5531
rhand -44.5564 75.939
rfingers 7.12502
rthumb -17.3568 46.694
lclavicle 1.72943e-014 6.36111e-015
lhumerus 79.8698 -8.26171 53.654
lradius 28.0788
lwrist -22.8118
lhand -39.366 61.0599
lfingers 7.12502
lthumb -12.3565 269.325
rfemur -13.869 -7.7978 22.5372
rtibia 21.682
rfoot -18.7974 -11.9492
rtoes 13.5848
lfemur 10.6556 -2.22445 -13.5763
ltibia 15.1398
lfoot 17.7973 18.835
ltoes 54.8241
592
root 12.8776 16.4196 -3.79597 -168.349 -16.0508 177.067
lowerback -7.55023 -4.42473 -1.66551
upperback -0.457846 -5.88394 2.10599
thorax 4.1361 -2.99005 2.44808
lowerneck -9.36596 -2.58142 -4.20452
upperneck -3.75393 -3.38785 4.08004
head 0.557245 -1.75874 1.88725
rclavicle 6.07287e-014 7.95139e-016
rhumerus 82.1724 7.98229 -84.8905
rradius 15.7206
rwrist 60.1094
rhand -44.7418 75.9041
rfingers 7.12502
rthumb -17.5352 46.6749
lclavicle 6.07287e-014 7.95139e-016
lhumerus 79.7917 -8.21709 53.3033
lradius 28.2423
lwrist -22.5397
lhand -39.467 60.5197
lfingers 7.12502
lthumb -12.4539 269.871
rfemur -13.902 -7.81194 22.4956
rtibia 21.727
rfoot -18.9287 -11.8342
rtoes 14.2031
lfemur 10.6743 -2.28598 -13.6517
ltibia 15.0823
lfoot 17.8699 18.7995
ltoes 54.6506
593
root 12.8762 16.4203 -3.79528 -168.303 -16.0149 177.022
lowerback -7.66095 -4.42713 -1.62972
upperback -0.427594 -5.88436 2.02738
thorax 4.21747 -2.98835 2.33709
lowerneck -9.29863 -2.58024 -4.12471
upperneck -3.84982 -3.39951 4.11942
head 0.515031 -1.76785 1.88643
rclavicle -3.76697e-014 -1.51076e-014
rhumerus 82.2132 7.95604 -84.6492
rradius 15.7718
rwrist 59.7546
rhand -44.9481 75.9341
rfingers 7.12502
rthumb -17.7337 46.7228
lclavicle -3.76697e-014 -1.51076e-014
lhumerus 79.8015 -8.24919 52.9828
lradius 28.3531
lwrist -22.3359
lhand -39.5048 60.0416
lfingers 7.12502
lthumb -12.4903 449.648
rfemur -13.952 -7.87629 22.4458
rtibia 21.7399
rfoot -18.9484 -11.753
rtoes 14.5222
lfemur 10.6507 -2.3458 -13.7394
ltibia 15.0569
lfoot 17.9207 18.8687
ltoes 54.6219
594
root 12.8765 16.421 -3.79505 -168.32 -15.9601 177.024
lowerback -7.66203 -4.41232 -1.68804
upperback -0.419019 -5.85905 2.02312
thorax 4.23096 -2.97685 2.36753
lowerneck -9.18045 -2.56172 -4.05686
upperneck -3.90976 -3.38336 4.06569
head 0.472495 -1.76183 1.85884
rclavicle -1.09332e-014 2.70347e-014
rhumerus 82.1947 7.89827 -84.8625
rradius 15.7218
rwrist 59.9481
rhand -45.0474 76.0345
rfingers 7.12502
rthumb -17.8292 46.8318
lclavicle -1.09332e-014 2.70347e-014
lhumerus 79.7904 -8.2857 52.863
lradius 28.4091
lwrist -22.2215
lhand -39.5174 59.405
lfingers 7.12502
lthumb -12.5026 449.011
rfemur -13.9543 -7.97605 22.4449
rtibia 21.76
rfoot -18.9287 -11.6696
rtoes 14.484
lfemur 10.6961 -2.39099 -13.7628
ltibia 15.0277
lfoot 17.8494 19.0176
ltoes 54.6587
595
root 12.8748 16.4228 -3.79452 -168.34 -15.9485 177.063
lowerback -7.66393 -4.42292 -1.68612
upperback -0.4125 -5.87417 2.03732
thorax 4.24105 -2.98465 2.37881
lowerneck -9.14639 -2.52799 -4.09244
upperneck -3.93634 -3.33649 4.1408
head 0.458981 -1.73797 1.89184
rclavicle -4.17448e-015 0
rhumerus 82.2126 7.89865 -84.7385
rradius 15.7174
rwrist 59.8948
rhand -45.1714 75.915
rfingers 7.12502
rthumb -17.9486 46.7233
lclavicle -4.17448e-015 0
lhumerus 79.7578 -8.24689 53.0561
lradius 28.3048
lwrist -22.4424
lhand -39.6452 58.2004
lfingers 7.12502
lthumb -12.6258 447.799
rfemur -13.9764 -8.15348 22.487
rtibia 21.8021
rfoot -19.0646 -11.413
rtoes 15.2348
lfemur 10.7401 -2.38064 -13.7277
ltibia 14.9703
lfoot 17.8184 19.0516
ltoes 54.6064
596
root 12.8722 16.4226 -3.79358 -168.346 -15.9195 177.052
lowerback -7.6834 -4.43034 -1.67891
upperback -0.401925 -5.88382 2.02767
thorax 4.26176 -2.98918 2.36166
lowerneck -9.15818 -2.50547 -4.15737
upperneck -3.94765 -3.30157 4.25964
head 0.460206 -1.71937 1.94347
rclavicle 7.85199e-015 2.62396e-014
rhumerus 82.2277 7.92226 -84.4328
rradius 15.769
rwrist 59.6321
rhand -45.1976 75.6938
rfingers 7.12502
rthumb -17.9738 46.5043
lclavicle 7.85199e-015 2.62396e-014
lhumerus 79.7153 -8.17756 53.4437
lradius 28.1483
lwrist -22.8523
lhand -39.806 56.5475
lfingers 7.12502
lthumb -12.7808 446.136
rfemur -13.9807 -8.265 22.4667
rtibia 21.8095
rfoot -19.1315 -11.2423
rtoes 15.528
lfemur 10.7458 -2.26755 -13.731
ltibia 14.9717
lfoot 17.9174 18.9236
ltoes 54.6566
597
root 12.8698 16.4222 -3.79356 -168.358 -15.8605 177.064
lowerback -7.70153 -4.41535 -1.65194
upperback -0.397199 -5.86654 2.03255
thorax 4.27361 -2.9803 2.35229
lowerneck -9.07726 -2.50149 -4.20715
upperneck -4.02369 -3.29487 4.32284
head 0.424623 -1.71664 1.97443
rclavicle 5.89397e-014 1.35174e-014
rhumerus 82.2415 7.94885 -83.7111
rradius 15.8849
rwrist 58.9925
rhand -45.2516 75.3992
rfingers 7.12502
rthumb -18.0258 46.2145
lclavicle 5.89397e-014 1.35174e-014
lhumerus 79.6612 -8.16254 53.8757
lradius 28.0702
lwrist -23.2578
lhand -39.8099 55.643
lfingers 7.12502
lthumb -12.7845 445.232
rfemur -13.9603 -8.3206 22.4597
rtibia 21.7743
rfoot -19.1072 -11.1905
rtoes 14.8576
lfemur 10.7246 -2.14425 -13.7279
ltibia 15.0591
lfoot 18.0472 18.7026
ltoes 54.7361
598
root 12.8673 16.422 -3.79281 -168.419 -15.8213 177.215
lowerback -7.71633 -4.37413 -1.44389
upperback -0.364337 -5.82949 2.02158
thorax 4.29191 -2.95793 2.22807
lowerneck -9.09289 -2.50387 -4.04252
upperneck -4.05133 -3.31572 4.24315
head 0.413974 -1.73101 1.9181
rclavicle -2.98177e-016 3.89618e-014
rhumerus 82.2818 7.909 -83.0497
rradius 15.9869
rwrist 58.3494
rhand -45.3557 75.1675
rfingers 7.12502
rthumb -18.1259 45.9921
lclavicle -2.98177e-016 3.89618e-014
lhumerus 79.7174 -8.22093 54.1159
lradius 28.0098
lwrist -23.5908
lhand -39.7167 55.3989
lfingers 7.12502
lthumb -12.6947 444.993
rfemur -13.9364 -8.38027 22.6031
rtibia 21.7491
rfoot -19.0996 -11.1166
rtoes 14.3474
lfemur 10.7226 -2.01189 -13.5656
ltibia 15.1365
lfoot 18.1256 18.5302
ltoes 54.7271
